<svg width="15" height="15" viewBox="0 0 15 15" fill="none" xmlns="http://www.w3.org/2000/svg">
<path d="M26.0254 30.1408V7.60125C26.0254 6.85402 25.5653 6.13739 24.7462 5.60902C23.9271 5.08065 22.8162 4.78381 21.6578 4.78381H12.9226C11.7642 4.78381 10.6533 5.08065 9.83418 5.60902C9.01509 6.13739 8.55493 6.85402 8.55493 7.60125V30.1408" stroke="url(#paint0_linear_24_10)" stroke-width="2.81744" stroke-linecap="round" stroke-linejoin="round"/>
<path d="M28.5598 10.4186H6.02032C4.46429 10.4186 3.20288 11.6801 3.20288 13.2361V27.3233C3.20288 28.8793 4.46429 30.1407 6.02032 30.1407H28.5598C30.1159 30.1407 31.3773 28.8793 31.3773 27.3233V13.2361C31.3773 11.6801 30.1159 10.4186 28.5598 10.4186Z" fill="url(#paint1_linear_24_10)" stroke="url(#paint2_linear_24_10)" stroke-width="2.81744" stroke-linecap="round" stroke-linejoin="round"/>
<defs>
<linearGradient id="paint0_linear_24_10" x1="8.55493" y1="17.4623" x2="22.1937" y2="19.8194" gradientUnits="userSpaceOnUse">
<stop stop-color="#6DCEF9"/>
<stop offset="1" stop-color="#B13DF6"/>
</linearGradient>
<linearGradient id="paint1_linear_24_10" x1="3.20288" y1="20.2797" x2="28.171" y2="29.227" gradientUnits="userSpaceOnUse">
<stop stop-color="#6DCEF9"/>
<stop offset="1" stop-color="#B13DF6"/>
</linearGradient>
<linearGradient id="paint2_linear_24_10" x1="3.20288" y1="20.2797" x2="28.171" y2="29.227" gradientUnits="userSpaceOnUse">
<stop stop-color="#6DCEF9"/>
<stop offset="1" stop-color="#B13DF6"/>
</linearGradient>
</defs>
</svg>
