<svg width="18" height="30" viewBox="0 0 18 18" fill="none" xmlns="http://www.w3.org/2000/svg">
<g clip-path="url(#clip0_23_2)">
<path d="M4.04997 17.698C3.08997 17.698 2.12997 17.333 1.39897 16.602C-0.0620273 15.14 -0.0620273 12.761 1.39897 11.299L3.51997 9.17698C3.81297 8.88398 4.28797 8.88398 4.58097 9.17698C4.87397 9.46998 4.87397 9.94498 4.58097 10.238L2.45997 12.36C1.58297 13.237 1.58297 14.665 2.45997 15.542C3.33697 16.42 4.76597 16.418 5.64297 15.542L9.88497 11.299C10.31 10.874 10.544 10.309 10.544 9.70798C10.544 9.10698 10.31 8.54198 9.88497 8.11698C9.59197 7.82498 9.59197 7.34898 9.88497 7.05598C10.178 6.76298 10.653 6.76298 10.946 7.05598C11.654 7.76398 12.045 8.70598 12.045 9.70698C12.045 10.708 11.654 11.65 10.946 12.359L6.70397 16.602C5.97297 17.333 5.01297 17.698 4.05197 17.698H4.04997ZM8.11597 10.945C8.40897 10.652 8.40897 10.177 8.11597 9.88398C7.69097 9.45898 7.45697 8.89398 7.45697 8.29298C7.45697 7.69198 7.69097 7.12698 8.11597 6.70198L12.358 2.45898C13.234 1.58298 14.663 1.58098 15.541 2.45898C16.418 3.33598 16.418 4.76398 15.541 5.64098L13.42 7.76298C13.127 8.05598 13.127 8.53098 13.42 8.82398C13.713 9.11698 14.188 9.11698 14.481 8.82398L16.602 6.70198C18.063 5.23998 18.063 2.86098 16.602 1.39898C15.138 -0.0630186 12.76 -0.0620185 11.298 1.39898L7.05597 5.64198C6.34797 6.34998 5.95697 7.29198 5.95697 8.29398C5.95697 9.29598 6.34797 10.237 7.05597 10.945C7.20197 11.091 7.39397 11.165 7.58597 11.165C7.77797 11.165 7.96997 11.092 8.11597 10.945Z" fill="#8d8d8d"/>
</g>
<defs>
<clipPath id="clip0_23_2">
<rect width="18" height="18" fill="white"/>
</clipPath>
</defs>
</svg>
